<svg width="108" height="33" viewBox="0 0 108 33" fill="none" xmlns="http://www.w3.org/2000/svg">
<path d="M40.2374 4.11902V5.90662H42.5093V6.8294H40.2374V8.65266H43.1199V9.6111H39.0252V3.16504H43.1199V4.11902H40.2374Z" fill="white"/>
<path d="M47.0862 8.82652V5.87988H45.9547C45.9248 6.26325 45.8874 6.60948 45.8425 6.91856C45.7976 7.22466 45.7452 7.49808 45.6854 7.7388C45.6255 7.97953 45.5596 8.18905 45.4878 8.36736C45.419 8.54567 45.3441 8.69873 45.2633 8.82652H47.0862ZM49.0078 8.79531V10.8147C49.0078 10.9158 48.9779 10.996 48.918 11.0554C48.8612 11.1149 48.7863 11.1446 48.6935 11.1446H48.0021V9.6111H44.5539V10.8326C44.5539 10.9098 44.5285 10.9812 44.4776 11.0465C44.4297 11.1119 44.3534 11.1446 44.2486 11.1446H43.5482V8.82652H43.6784C43.7832 8.82652 43.8849 8.81315 43.9837 8.7864C44.0825 8.75668 44.1768 8.69724 44.2666 8.60808C44.3594 8.51893 44.4462 8.39114 44.527 8.22471C44.6108 8.05531 44.6856 7.83093 44.7515 7.55157C44.8173 7.26924 44.8742 6.92301 44.9221 6.51289C44.973 6.10277 45.0134 5.61092 45.0433 5.03734H48.1637V8.79531H49.0078Z" fill="white"/>
<path d="M53.846 5.03734V9.6111H52.737V6.94085C52.737 6.87249 52.74 6.79819 52.746 6.71795C52.7549 6.63474 52.7654 6.55153 52.7774 6.46831C52.7175 6.60502 52.6517 6.72538 52.5798 6.8294C52.5739 6.83534 52.5439 6.87695 52.49 6.95422C52.4362 7.02852 52.3658 7.1251 52.279 7.24398C52.1952 7.36286 52.0994 7.49808 51.9917 7.64964C51.8839 7.79824 51.7747 7.94981 51.6639 8.10435C51.4035 8.46989 51.1087 8.88299 50.7794 9.34363C50.7375 9.40604 50.6821 9.46697 50.6133 9.5264C50.5474 9.58584 50.4711 9.61556 50.3843 9.61556H49.7064V5.0418H50.8153V7.71205C50.8153 7.78041 50.8109 7.85619 50.8019 7.93941C50.7959 8.01965 50.7869 8.10137 50.7749 8.18459C50.8408 8.03896 50.9066 7.9186 50.9725 7.8235C50.9755 7.81756 51.0039 7.77744 51.0578 7.70314C51.1117 7.62884 51.1805 7.53225 51.2643 7.41338C51.3511 7.2945 51.4484 7.16077 51.5562 7.01217C51.6639 6.8606 51.7732 6.70606 51.8839 6.54855C52.1443 6.18301 52.4407 5.76991 52.7729 5.30927C52.8148 5.24389 52.8702 5.18296 52.939 5.1265C53.0079 5.06706 53.0857 5.03734 53.1725 5.03734H53.846Z" fill="white"/>
<path d="M58.9555 5.03734V9.6111H57.8465V7.58723H56.0506V9.6111H54.9416V5.03734H56.0506V6.77145H57.8465V5.03734H58.9555Z" fill="white"/>
<path d="M62.4875 7.65856C62.1672 7.67342 61.8978 7.70165 61.6793 7.74326C61.4608 7.78189 61.2857 7.83242 61.154 7.89483C61.0223 7.95724 60.928 8.03005 60.8712 8.11326C60.8143 8.19648 60.7858 8.28712 60.7858 8.38519C60.7858 8.57837 60.8427 8.71656 60.9565 8.79977C61.0732 8.88299 61.2244 8.92459 61.4099 8.92459C61.6374 8.92459 61.8335 8.88447 61.9981 8.80423C62.1657 8.72102 62.3289 8.5962 62.4875 8.42977V7.65856ZM59.9462 5.67481C60.476 5.19336 61.1136 4.95264 61.8589 4.95264C62.1283 4.95264 62.3693 4.99722 62.5818 5.08638C62.7943 5.17256 62.9739 5.29441 63.1206 5.45192C63.2672 5.60646 63.378 5.7922 63.4528 6.00915C63.5306 6.2261 63.5695 6.46385 63.5695 6.72241V9.6111H63.0667C62.9619 9.6111 62.8811 9.59624 62.8242 9.56652C62.7674 9.53383 62.7225 9.46994 62.6895 9.37484L62.5908 9.04495C62.474 9.14897 62.3603 9.2411 62.2495 9.32134C62.1388 9.39861 62.0235 9.46399 61.9038 9.51749C61.7841 9.57098 61.6554 9.6111 61.5177 9.63785C61.383 9.66757 61.2333 9.68243 61.0687 9.68243C60.8741 9.68243 60.6946 9.65717 60.5299 9.60665C60.3653 9.55315 60.2231 9.4744 60.1034 9.37038C59.9837 9.26636 59.8909 9.13708 59.825 8.98254C59.7592 8.82801 59.7262 8.64821 59.7262 8.44314C59.7262 8.32724 59.7457 8.21282 59.7846 8.09989C59.8235 7.98398 59.8864 7.87402 59.9732 7.77001C60.063 7.66599 60.1782 7.56792 60.3189 7.47579C60.4596 7.38366 60.6317 7.30342 60.8352 7.23506C61.0418 7.16671 61.2812 7.11173 61.5536 7.07012C61.826 7.02554 62.1373 6.9988 62.4875 6.98988V6.72241C62.4875 6.4163 62.4216 6.19044 62.2899 6.04482C62.1582 5.89622 61.9682 5.82192 61.7197 5.82192C61.5401 5.82192 61.3905 5.84273 61.2708 5.88433C61.154 5.92594 61.0507 5.97349 60.961 6.02698C60.8712 6.07751 60.7888 6.12357 60.714 6.16518C60.6422 6.20678 60.5614 6.22759 60.4716 6.22759C60.3937 6.22759 60.3279 6.20827 60.274 6.16964C60.2201 6.12803 60.1767 6.08048 60.1438 6.02698L59.9462 5.67481Z" fill="white"/>
<path d="M67.016 7.09687V5.75505H66.4144C66.2737 5.75505 66.157 5.77586 66.0642 5.81747C65.9714 5.8561 65.8951 5.90811 65.8352 5.97349C65.7784 6.0359 65.7379 6.10723 65.714 6.18747C65.6901 6.26771 65.6781 6.34646 65.6781 6.42373C65.6781 6.63474 65.7484 6.79968 65.8891 6.91856C66.0328 7.03743 66.2243 7.09687 66.4638 7.09687H67.016ZM68.0712 5.03734V9.6111H67.016V7.77447H66.823C66.7332 7.77447 66.6584 7.78338 66.5985 7.80121C66.5416 7.81607 66.4922 7.83836 66.4503 7.86808C66.4114 7.89483 66.377 7.929 66.3471 7.97061C66.3201 8.01222 66.2917 8.05828 66.2618 8.1088L65.5254 9.23218C65.4895 9.29459 65.4506 9.34958 65.4087 9.39713C65.3698 9.44468 65.3234 9.4848 65.2695 9.51749C65.2186 9.54721 65.1573 9.57098 65.0854 9.58881C65.0166 9.60367 64.9328 9.6111 64.834 9.6111H64.0662L65.2291 7.99736C65.292 7.88443 65.3653 7.79378 65.4491 7.72543C65.5329 7.65707 65.6317 7.60209 65.7454 7.56049C65.5299 7.52185 65.3458 7.46241 65.1932 7.38217C65.0435 7.29896 64.9223 7.20386 64.8295 7.09687C64.7367 6.98691 64.6694 6.86952 64.6275 6.7447C64.5856 6.61988 64.5646 6.49655 64.5646 6.3747C64.5646 6.2053 64.5975 6.04036 64.6634 5.87988C64.7322 5.71939 64.84 5.57674 64.9866 5.45192C65.1333 5.3271 65.3219 5.22754 65.5524 5.15324C65.7828 5.07597 66.0597 5.03734 66.383 5.03734H68.0712Z" fill="white"/>
<path d="M41.2881 19.2117C41.5126 19.2117 41.6996 19.1879 41.8493 19.1404C42.0019 19.0899 42.1247 19.0215 42.2175 18.9353C42.3102 18.8491 42.3761 18.7481 42.415 18.6322C42.4539 18.5163 42.4734 18.3915 42.4734 18.2577C42.4734 18.1121 42.4539 17.9799 42.415 17.861C42.3761 17.7421 42.3102 17.6425 42.2175 17.5623C42.1247 17.4791 42.0034 17.4152 41.8538 17.3706C41.7041 17.326 41.517 17.3037 41.2926 17.3037H40.233V19.2117H41.2881ZM41.2926 16.3676C41.7146 16.3676 42.0753 16.4137 42.3746 16.5058C42.6769 16.5979 42.9224 16.7242 43.1109 16.8847C43.3025 17.0422 43.4432 17.2294 43.533 17.4464C43.6228 17.6604 43.6677 17.8907 43.6677 18.1374C43.6677 18.4405 43.6138 18.7154 43.506 18.9621C43.4013 19.2087 43.2471 19.4212 43.0436 19.5995C42.84 19.7749 42.5901 19.9101 42.2938 20.0052C42.0004 20.1003 41.6652 20.1479 41.2881 20.1479H39.0252V13.7018H43.4297V14.629H40.233V16.3676H41.2926Z" fill="white"/>
<path d="M48.5757 15.5741V20.1479H47.4667V17.4776C47.4667 17.4092 47.4697 17.335 47.4757 17.2547C47.4847 17.1715 47.4951 17.0883 47.5071 17.0051C47.4472 17.1418 47.3814 17.2621 47.3096 17.3662C47.3036 17.3721 47.2736 17.4137 47.2198 17.491C47.1659 17.5653 47.0955 17.6619 47.0087 17.7807C46.9249 17.8996 46.8291 18.0348 46.7214 18.1864C46.6136 18.335 46.5044 18.4866 46.3936 18.6411C46.1332 19.0066 45.8384 19.4197 45.5091 19.8804C45.4672 19.9428 45.4119 20.0037 45.343 20.0632C45.2772 20.1226 45.2008 20.1523 45.114 20.1523H44.4361V15.5786H45.5451V18.2488C45.5451 18.3172 45.5406 18.3929 45.5316 18.4762C45.5256 18.5564 45.5166 18.6381 45.5046 18.7213C45.5705 18.5757 45.6363 18.4554 45.7022 18.3603C45.7052 18.3543 45.7336 18.3142 45.7875 18.2399C45.8414 18.1656 45.9102 18.069 45.994 17.9501C46.0808 17.8313 46.1781 17.6975 46.2859 17.5489C46.3936 17.3974 46.5029 17.2428 46.6136 17.0853C46.874 16.7198 47.1704 16.3067 47.5026 15.846C47.5445 15.7806 47.5999 15.7197 47.6687 15.6633C47.7376 15.6038 47.8154 15.5741 47.9022 15.5741H48.5757Z" fill="white"/>
<path d="M51.7097 15.5028C52.0509 15.5028 52.3607 15.5578 52.6391 15.6677C52.9204 15.7777 53.1599 15.9337 53.3574 16.1358C53.558 16.3379 53.7121 16.5845 53.8199 16.8758C53.9276 17.167 53.9815 17.4925 53.9815 17.8521C53.9815 18.2146 53.9276 18.5415 53.8199 18.8328C53.7121 19.124 53.558 19.3722 53.3574 19.5773C53.1599 19.7823 52.9204 19.9398 52.6391 20.0498C52.3607 20.1597 52.0509 20.2147 51.7097 20.2147C51.3654 20.2147 51.0526 20.1597 50.7713 20.0498C50.4899 19.9398 50.249 19.7823 50.0484 19.5773C49.8509 19.3722 49.6967 19.124 49.586 18.8328C49.4782 18.5415 49.4243 18.2146 49.4243 17.8521C49.4243 17.4925 49.4782 17.167 49.586 16.8758C49.6967 16.5845 49.8509 16.3379 50.0484 16.1358C50.249 15.9337 50.4899 15.7777 50.7713 15.6677C51.0526 15.5578 51.3654 15.5028 51.7097 15.5028ZM51.7097 19.3677C52.0928 19.3677 52.3756 19.2399 52.5582 18.9844C52.7438 18.7288 52.8366 18.3543 52.8366 17.861C52.8366 17.3676 52.7438 16.9917 52.5582 16.7331C52.3756 16.4746 52.0928 16.3453 51.7097 16.3453C51.3205 16.3453 51.0317 16.4761 50.8431 16.7376C50.6575 16.9962 50.5648 17.3706 50.5648 17.861C50.5648 18.3513 50.6575 18.7258 50.8431 18.9844C51.0317 19.2399 51.3205 19.3677 51.7097 19.3677Z" fill="white"/>
<path d="M60.166 15.5652V20.1479H59.1647V17.598C59.1647 17.4939 59.1692 17.3766 59.1782 17.2458C59.1902 17.115 59.2081 16.9932 59.2321 16.8802L57.8762 19.3499C57.8103 19.4777 57.7055 19.5416 57.5619 19.5416H57.4451C57.3015 19.5416 57.1967 19.4777 57.1308 19.3499L55.757 16.8669C55.7779 16.9798 55.7944 17.1031 55.8063 17.2369C55.8213 17.3706 55.8288 17.491 55.8288 17.598V20.1479H54.8276V15.5652H55.7435C55.8213 15.5652 55.8976 15.5815 55.9725 15.6142C56.0503 15.6469 56.1146 15.7123 56.1655 15.8104L57.2521 17.7362C57.3 17.8253 57.3449 17.9204 57.3868 18.0215C57.4287 18.1195 57.4676 18.2191 57.5035 18.3201C57.5394 18.2191 57.5768 18.118 57.6157 18.017C57.6577 17.916 57.7026 17.8223 57.7504 17.7362L58.828 15.8104C58.8819 15.7093 58.9462 15.6439 59.0211 15.6142C59.0959 15.5815 59.1722 15.5652 59.25 15.5652H60.166Z" fill="white"/>
<path d="M64.2319 17.3349C64.2319 17.1923 64.211 17.0586 64.1691 16.9337C64.1302 16.806 64.0703 16.6945 63.9895 16.5994C63.9087 16.5043 63.8054 16.43 63.6797 16.3765C63.557 16.32 63.4133 16.2918 63.2487 16.2918C62.9284 16.2918 62.6755 16.3825 62.4899 16.5637C62.3073 16.745 62.1906 17.0021 62.1397 17.3349H64.2319ZM62.1172 17.9992C62.1352 18.234 62.1771 18.4375 62.2429 18.6099C62.3088 18.7793 62.3956 18.9205 62.5033 19.0334C62.6111 19.1434 62.7383 19.2266 62.885 19.283C63.0346 19.3365 63.1993 19.3633 63.3789 19.3633C63.5585 19.3633 63.7126 19.3425 63.8413 19.3009C63.973 19.2593 64.0868 19.2132 64.1825 19.1627C64.2813 19.1122 64.3666 19.0661 64.4385 19.0245C64.5133 18.9829 64.5851 18.9621 64.654 18.9621C64.7468 18.9621 64.8156 18.9962 64.8605 19.0646L65.1793 19.4658C65.0566 19.6085 64.9189 19.7288 64.7662 19.8269C64.6136 19.922 64.4534 19.9993 64.2858 20.0587C64.1212 20.1152 63.9521 20.1553 63.7785 20.1791C63.6078 20.2028 63.4417 20.2147 63.2801 20.2147C62.9598 20.2147 62.662 20.1627 62.3866 20.0587C62.1112 19.9517 61.8718 19.7957 61.6682 19.5906C61.4647 19.3826 61.3046 19.127 61.1878 18.8239C61.0711 18.5178 61.0127 18.1641 61.0127 17.7629C61.0127 17.4509 61.0636 17.1581 61.1654 16.8847C61.2671 16.6083 61.4123 16.3691 61.6009 16.167C61.7925 15.9619 62.0244 15.8 62.2968 15.6811C62.5722 15.5622 62.882 15.5028 63.2262 15.5028C63.5166 15.5028 63.7844 15.5488 64.0299 15.641C64.2753 15.7331 64.4864 15.8683 64.663 16.0466C64.8396 16.222 64.9772 16.4389 65.076 16.6975C65.1778 16.9531 65.2287 17.2458 65.2287 17.5757C65.2287 17.7421 65.2107 17.855 65.1748 17.9145C65.1389 17.9709 65.07 17.9992 64.9683 17.9992H62.1172Z" fill="white"/>
<path d="M69.9769 16.3899H68.3336V20.1479H67.2246V16.3899H65.5858V15.5741H69.9769V16.3899Z" fill="white"/>
<path d="M71.7386 18.9621C71.8644 19.1136 72.0006 19.2206 72.1472 19.283C72.2969 19.3454 72.4585 19.3766 72.6321 19.3766C72.7997 19.3766 72.9509 19.3454 73.0856 19.283C73.2203 19.2206 73.334 19.1255 73.4268 18.9977C73.5226 18.8699 73.5959 18.7095 73.6468 18.5163C73.6977 18.3201 73.7232 18.0898 73.7232 17.8253C73.7232 17.5578 73.7007 17.332 73.6558 17.1477C73.6139 16.9605 73.5525 16.8089 73.4717 16.693C73.3909 16.5771 73.2921 16.4924 73.1754 16.4389C73.0617 16.3854 72.9314 16.3587 72.7848 16.3587C72.5543 16.3587 72.3582 16.4077 72.1966 16.5058C72.035 16.6009 71.8823 16.7361 71.7386 16.9115V18.9621ZM71.6803 16.1982C71.8689 15.9872 72.0829 15.8163 72.3223 15.6855C72.5618 15.5548 72.8431 15.4894 73.1664 15.4894C73.4178 15.4894 73.6468 15.5414 73.8534 15.6454C74.0629 15.7494 74.2425 15.901 74.3921 16.1001C74.5448 16.2963 74.6615 16.54 74.7423 16.8312C74.8262 17.1195 74.8681 17.4509 74.8681 17.8253C74.8681 18.1671 74.8217 18.4836 74.7289 18.7748C74.6361 19.0661 74.5029 19.3187 74.3293 19.5327C74.1587 19.7467 73.9506 19.9146 73.7052 20.0364C73.4627 20.1553 73.1904 20.2147 72.888 20.2147C72.6306 20.2147 72.4106 20.1761 72.228 20.0988C72.0455 20.0186 71.8823 19.9086 71.7386 19.7689V21.6412H70.6297V15.5741H71.3076C71.4513 15.5741 71.5456 15.641 71.5905 15.7747L71.6803 16.1982Z" fill="white"/>
<path d="M79.8642 15.5741V20.1479H78.7552V17.4776C78.7552 17.4092 78.7582 17.335 78.7642 17.2547C78.7732 17.1715 78.7836 17.0883 78.7956 17.0051C78.7357 17.1418 78.6699 17.2621 78.5981 17.3662C78.5921 17.3721 78.5621 17.4137 78.5083 17.491C78.4544 17.5653 78.384 17.6619 78.2972 17.7807C78.2134 17.8996 78.1176 18.0348 78.0099 18.1864C77.9021 18.335 77.7929 18.4866 77.6821 18.6411C77.4217 19.0066 77.1269 19.4197 76.7976 19.8804C76.7557 19.9428 76.7004 20.0037 76.6315 20.0632C76.5657 20.1226 76.4893 20.1523 76.4025 20.1523H75.7246V15.5786H76.8336V18.2488C76.8336 18.3172 76.8291 18.3929 76.8201 18.4762C76.8141 18.5564 76.8051 18.6381 76.7931 18.7213C76.859 18.5757 76.9248 18.4554 76.9907 18.3603C76.9937 18.3543 77.0221 18.3142 77.076 18.2399C77.1299 18.1656 77.1987 18.069 77.2825 17.9501C77.3693 17.8313 77.4666 17.6975 77.5744 17.5489C77.6821 17.3974 77.7914 17.2428 77.9021 17.0853C78.1625 16.7198 78.4589 16.3067 78.7911 15.846C78.833 15.7806 78.8884 15.7197 78.9572 15.6633C79.0261 15.6038 79.1039 15.5741 79.1907 15.5741H79.8642Z" fill="white"/>
<path d="M84.5965 15.5741V20.1479H83.4876V18.3513C83.0924 18.4464 82.7258 18.5014 82.3875 18.5163C82.0493 18.5282 81.756 18.488 81.5075 18.3959C81.2621 18.3008 81.069 18.1478 80.9283 17.9368C80.7907 17.7258 80.7218 17.4449 80.7218 17.0942V15.5741H81.8308V16.9248C81.8308 17.1121 81.8607 17.2636 81.9206 17.3795C81.9835 17.4925 82.0807 17.5742 82.2124 17.6247C82.3471 17.6752 82.5192 17.696 82.7288 17.6871C82.9383 17.6782 83.1912 17.644 83.4876 17.5846V15.5741H84.5965Z" fill="white"/>
<path d="M88.6629 17.3349C88.6629 17.1923 88.642 17.0586 88.6001 16.9337C88.5611 16.806 88.5013 16.6945 88.4205 16.5994C88.3397 16.5043 88.2364 16.43 88.1107 16.3765C87.9879 16.32 87.8443 16.2918 87.6796 16.2918C87.3594 16.2918 87.1064 16.3825 86.9209 16.5637C86.7383 16.745 86.6215 17.0021 86.5707 17.3349H88.6629ZM86.5482 17.9992C86.5662 18.234 86.6081 18.4375 86.6739 18.6099C86.7398 18.7793 86.8266 18.9205 86.9343 19.0334C87.0421 19.1434 87.1693 19.2266 87.316 19.283C87.4656 19.3365 87.6303 19.3633 87.8099 19.3633C87.9894 19.3633 88.1436 19.3425 88.2723 19.3009C88.404 19.2593 88.5177 19.2132 88.6135 19.1627C88.7123 19.1122 88.7976 19.0661 88.8695 19.0245C88.9443 18.9829 89.0161 18.9621 89.085 18.9621C89.1778 18.9621 89.2466 18.9962 89.2915 19.0646L89.6103 19.4658C89.4876 19.6085 89.3499 19.7288 89.1972 19.8269C89.0446 19.922 88.8844 19.9993 88.7168 20.0587C88.5522 20.1152 88.3831 20.1553 88.2094 20.1791C88.0388 20.2028 87.8727 20.2147 87.7111 20.2147C87.3908 20.2147 87.093 20.1627 86.8176 20.0587C86.5422 19.9517 86.3028 19.7957 86.0992 19.5906C85.8957 19.3826 85.7355 19.127 85.6188 18.8239C85.5021 18.5178 85.4437 18.1641 85.4437 17.7629C85.4437 17.4509 85.4946 17.1581 85.5964 16.8847C85.6981 16.6083 85.8433 16.3691 86.0319 16.167C86.2234 15.9619 86.4554 15.8 86.7278 15.6811C87.0032 15.5622 87.313 15.5028 87.6572 15.5028C87.9475 15.5028 88.2154 15.5488 88.4609 15.641C88.7063 15.7331 88.9173 15.8683 89.0939 16.0466C89.2705 16.222 89.4082 16.4389 89.507 16.6975C89.6088 16.9531 89.6597 17.2458 89.6597 17.5757C89.6597 17.7421 89.6417 17.855 89.6058 17.9145C89.5699 17.9709 89.501 17.9992 89.3993 17.9992H86.5482Z" fill="white"/>
<path d="M93.7919 16.5415C93.759 16.5831 93.7261 16.6157 93.6931 16.6395C93.6632 16.6633 93.6183 16.6752 93.5584 16.6752C93.5016 16.6752 93.4462 16.6588 93.3923 16.6262C93.3384 16.5905 93.2741 16.5519 93.1993 16.5102C93.1244 16.4657 93.0346 16.427 92.9299 16.3943C92.8281 16.3587 92.7009 16.3408 92.5482 16.3408C92.3537 16.3408 92.1831 16.3765 92.0364 16.4478C91.8897 16.5162 91.767 16.6157 91.6682 16.7465C91.5724 16.8773 91.5006 17.0363 91.4527 17.2235C91.4048 17.4078 91.3809 17.6173 91.3809 17.8521C91.3809 18.0958 91.4063 18.3127 91.4572 18.5029C91.5111 18.6931 91.5874 18.8536 91.6862 18.9844C91.785 19.1122 91.9047 19.2102 92.0454 19.2786C92.1861 19.344 92.3447 19.3766 92.5213 19.3766C92.6979 19.3766 92.8401 19.3558 92.9478 19.3142C93.0586 19.2697 93.1514 19.2221 93.2262 19.1716C93.301 19.1181 93.3654 19.0705 93.4193 19.0289C93.4761 18.9844 93.539 18.9621 93.6078 18.9621C93.6976 18.9621 93.765 18.9962 93.8099 19.0646L94.1287 19.4658C94.0059 19.6085 93.8727 19.7288 93.7291 19.8269C93.5854 19.922 93.4357 19.9993 93.2801 20.0587C93.1274 20.1152 92.9688 20.1553 92.8042 20.1791C92.6425 20.2028 92.4809 20.2147 92.3193 20.2147C92.0349 20.2147 91.767 20.1627 91.5156 20.0587C91.2641 19.9517 91.0441 19.7972 90.8556 19.5951C90.667 19.393 90.5173 19.1463 90.4066 18.8551C90.2988 18.5609 90.245 18.2265 90.245 17.8521C90.245 17.5162 90.2928 17.2057 90.3886 16.9204C90.4874 16.6321 90.6311 16.3839 90.8197 16.1759C91.0082 15.9649 91.2417 15.8 91.5201 15.6811C91.7984 15.5622 92.1187 15.5028 92.4809 15.5028C92.8251 15.5028 93.1259 15.5578 93.3833 15.6677C93.6438 15.7777 93.8772 15.9352 94.0838 16.1402L93.7919 16.5415Z" fill="white"/>
<path d="M97.5761 15.8639C97.63 15.7777 97.7034 15.7078 97.7961 15.6543C97.8889 15.6008 97.9877 15.5741 98.0925 15.5741H98.9635L97.8904 17.2725C97.8156 17.3914 97.7393 17.488 97.6615 17.5623C97.5836 17.6336 97.4893 17.6901 97.3786 17.7317C97.5283 17.7763 97.651 17.8431 97.7468 17.9323C97.8425 18.0185 97.9293 18.1284 98.0072 18.2622L99.0847 20.1479H98.317C98.1224 20.1479 97.9713 20.1152 97.8635 20.0498C97.7557 19.9844 97.6644 19.8908 97.5896 19.7689L96.9117 18.5029C96.8518 18.3929 96.774 18.3112 96.6782 18.2577C96.5854 18.2042 96.4761 18.1775 96.3504 18.1775H95.9329V20.1479H94.8239V15.5741H95.9329V17.4598H96.2921C96.4178 17.4598 96.518 17.4375 96.5929 17.3929C96.6707 17.3454 96.7365 17.274 96.7904 17.1789L97.5761 15.8639Z" fill="white"/>
<path d="M102.133 18.1953C101.813 18.2102 101.543 18.2384 101.325 18.28C101.106 18.3187 100.931 18.3692 100.8 18.4316C100.668 18.494 100.574 18.5668 100.517 18.65C100.46 18.7332 100.431 18.8239 100.431 18.9219C100.431 19.1151 100.488 19.2533 100.602 19.3365C100.719 19.4197 100.87 19.4613 101.055 19.4613C101.283 19.4613 101.479 19.4212 101.644 19.341C101.811 19.2578 101.974 19.133 102.133 18.9665V18.1953ZM99.5918 16.2116C100.122 15.7301 100.759 15.4894 101.504 15.4894C101.774 15.4894 102.015 15.534 102.227 15.6231C102.44 15.7093 102.619 15.8312 102.766 15.9887C102.913 16.1432 103.024 16.329 103.098 16.5459C103.176 16.7629 103.215 17.0006 103.215 17.2592V20.1479H102.712C102.607 20.1479 102.527 20.133 102.47 20.1033C102.413 20.0706 102.368 20.0067 102.335 19.9116L102.236 19.5817C102.12 19.6857 102.006 19.7779 101.895 19.8581C101.784 19.9354 101.669 20.0007 101.549 20.0542C101.43 20.1077 101.301 20.1479 101.163 20.1746C101.029 20.2043 100.879 20.2192 100.714 20.2192C100.52 20.2192 100.34 20.1939 100.175 20.1434C100.011 20.0899 99.8687 20.0112 99.7489 19.9071C99.6292 19.8031 99.5364 19.6738 99.4706 19.5193C99.4047 19.3648 99.3718 19.185 99.3718 18.9799C99.3718 18.864 99.3913 18.7496 99.4302 18.6366C99.4691 18.5207 99.5319 18.4108 99.6187 18.3068C99.7085 18.2027 99.8238 18.1047 99.9645 18.0125C100.105 17.9204 100.277 17.8402 100.481 17.7718C100.687 17.7035 100.927 17.6485 101.199 17.6069C101.472 17.5623 101.783 17.5356 102.133 17.5266V17.2592C102.133 16.9531 102.067 16.7272 101.935 16.5816C101.804 16.433 101.614 16.3587 101.365 16.3587C101.186 16.3587 101.036 16.3795 100.916 16.4211C100.8 16.4627 100.696 16.5102 100.606 16.5637C100.517 16.6143 100.434 16.6603 100.36 16.7019C100.288 16.7435 100.207 16.7643 100.117 16.7643C100.039 16.7643 99.9734 16.745 99.9196 16.7064C99.8657 16.6648 99.8223 16.6172 99.7893 16.5637L99.5918 16.2116Z" fill="white"/>
<path d="M106.662 17.6336V16.2918H106.06C105.919 16.2918 105.803 16.3126 105.71 16.3542C105.617 16.3929 105.541 16.4449 105.481 16.5102C105.424 16.5727 105.383 16.644 105.36 16.7242C105.336 16.8045 105.324 16.8832 105.324 16.9605C105.324 17.1715 105.394 17.3364 105.535 17.4553C105.678 17.5742 105.87 17.6336 106.109 17.6336H106.662ZM107.717 15.5741V20.1479H106.662V18.3112H106.469C106.379 18.3112 106.304 18.3201 106.244 18.338C106.187 18.3528 106.138 18.3751 106.096 18.4048C106.057 18.4316 106.023 18.4658 105.993 18.5074C105.966 18.549 105.937 18.595 105.907 18.6456L105.171 19.7689C105.135 19.8314 105.096 19.8863 105.054 19.9339C105.015 19.9814 104.969 20.0216 104.915 20.0542C104.864 20.084 104.803 20.1077 104.731 20.1256C104.662 20.1404 104.578 20.1479 104.48 20.1479H103.712L104.875 18.5341C104.938 18.4212 105.011 18.3305 105.095 18.2622C105.178 18.1938 105.277 18.1389 105.391 18.0972C105.175 18.0586 104.991 17.9992 104.839 17.9189C104.689 17.8357 104.568 17.7406 104.475 17.6336C104.382 17.5237 104.315 17.4063 104.273 17.2815C104.231 17.1566 104.21 17.0333 104.21 16.9115C104.21 16.7421 104.243 16.5771 104.309 16.4166C104.378 16.2561 104.486 16.1135 104.632 15.9887C104.779 15.8639 104.967 15.7643 105.198 15.69C105.428 15.6127 105.705 15.5741 106.029 15.5741H107.717Z" fill="white"/>
<path d="M43.4836 29.1645C43.5494 29.1645 43.6078 29.1897 43.6587 29.2403L44.1346 29.7529C43.8712 30.0769 43.5464 30.325 43.1603 30.4974C42.7772 30.6698 42.3162 30.7559 41.7775 30.7559C41.2955 30.7559 40.8615 30.6742 40.4754 30.5108C40.0923 30.3473 39.7645 30.12 39.4921 29.8287C39.2197 29.5375 39.0102 29.1897 38.8636 28.7856C38.7199 28.3814 38.648 27.9401 38.648 27.4616C38.648 26.9772 38.7259 26.5343 38.8815 26.1331C39.0372 25.729 39.2557 25.3813 39.537 25.09C39.8214 24.7988 40.1596 24.5729 40.5517 24.4124C40.9438 24.249 41.3779 24.1672 41.8538 24.1672C42.3267 24.1672 42.7458 24.2445 43.1109 24.399C43.4791 24.5536 43.7919 24.7557 44.0493 25.0053L43.6452 25.5625C43.6213 25.5982 43.5898 25.6294 43.5509 25.6562C43.515 25.6829 43.4641 25.6963 43.3983 25.6963C43.3534 25.6963 43.307 25.6844 43.2591 25.6606C43.2112 25.6339 43.1588 25.6027 43.102 25.567C43.0451 25.5284 42.9792 25.4868 42.9044 25.4422C42.8296 25.3976 42.7428 25.3575 42.644 25.3218C42.5452 25.2832 42.43 25.252 42.2983 25.2282C42.1696 25.2014 42.0199 25.1881 41.8493 25.1881C41.5589 25.1881 41.2926 25.2401 41.0501 25.3441C40.8106 25.4451 40.6041 25.5937 40.4305 25.7899C40.2569 25.9831 40.1222 26.2208 40.0264 26.5031C39.9306 26.7825 39.8827 27.102 39.8827 27.4616C39.8827 27.8242 39.9336 28.1466 40.0354 28.4289C40.1402 28.7113 40.2808 28.949 40.4574 29.1422C40.634 29.3354 40.8421 29.484 41.0815 29.588C41.321 29.689 41.5784 29.7395 41.8538 29.7395C42.0184 29.7395 42.1666 29.7306 42.2983 29.7128C42.433 29.695 42.5557 29.6667 42.6664 29.6281C42.7802 29.5895 42.8864 29.5404 42.9852 29.481C43.087 29.4186 43.1873 29.3428 43.286 29.2536C43.316 29.2269 43.3474 29.2061 43.3803 29.1912C43.4132 29.1734 43.4477 29.1645 43.4836 29.1645Z" fill="white"/>
<path d="M48.9089 26.1109V30.6846H47.7999V28.0144C47.7999 27.946 47.8029 27.8717 47.8089 27.7915C47.8179 27.7083 47.8284 27.625 47.8403 27.5418C47.7805 27.6785 47.7146 27.7989 47.6428 27.9029C47.6368 27.9089 47.6069 27.9505 47.553 28.0277C47.4991 28.102 47.4288 28.1986 47.342 28.3175C47.2582 28.4364 47.1624 28.5716 47.0546 28.7232C46.9469 28.8718 46.8376 29.0233 46.7269 29.1779C46.4664 29.5434 46.1716 29.9565 45.8424 30.4171C45.8005 30.4796 45.7451 30.5405 45.6762 30.5999C45.6104 30.6594 45.5341 30.6891 45.4473 30.6891H44.7693V26.1153H45.8783V28.7856C45.8783 28.8539 45.8738 28.9297 45.8648 29.0129C45.8588 29.0932 45.8498 29.1749 45.8379 29.2581C45.9037 29.1125 45.9696 28.9921 46.0354 28.897C46.0384 28.8911 46.0669 28.851 46.1207 28.7767C46.1746 28.7024 46.2435 28.6058 46.3273 28.4869C46.4141 28.368 46.5113 28.2343 46.6191 28.0857C46.7269 27.9341 46.8361 27.7796 46.9469 27.6221C47.2073 27.2565 47.5036 26.8434 47.8358 26.3828C47.8778 26.3174 47.9331 26.2565 48.002 26.2C48.0708 26.1406 48.1486 26.1109 48.2354 26.1109H48.9089Z" fill="white"/>
<path d="M53.3045 27.0782C53.2716 27.1198 53.2387 27.1525 53.2058 27.1763C53.1758 27.2001 53.1309 27.2119 53.0711 27.2119C53.0142 27.2119 52.9588 27.1956 52.9049 27.1629C52.8511 27.1272 52.7867 27.0886 52.7119 27.047C52.637 27.0024 52.5472 26.9638 52.4425 26.9311C52.3407 26.8954 52.2135 26.8776 52.0608 26.8776C51.8663 26.8776 51.6957 26.9133 51.549 26.9846C51.4023 27.0529 51.2796 27.1525 51.1808 27.2833C51.0851 27.414 51.0132 27.573 50.9653 27.7603C50.9174 27.9445 50.8935 28.154 50.8935 28.3888C50.8935 28.6325 50.9189 28.8495 50.9698 29.0397C51.0237 29.2299 51.1 29.3903 51.1988 29.5211C51.2976 29.6489 51.4173 29.747 51.558 29.8153C51.6987 29.8807 51.8573 29.9134 52.0339 29.9134C52.2105 29.9134 52.3527 29.8926 52.4604 29.851C52.5712 29.8064 52.664 29.7589 52.7388 29.7083C52.8136 29.6549 52.878 29.6073 52.9319 29.5657C52.9887 29.5211 53.0516 29.4988 53.1204 29.4988C53.2102 29.4988 53.2776 29.533 53.3225 29.6014L53.6413 30.0026C53.5185 30.1452 53.3853 30.2656 53.2417 30.3636C53.098 30.4587 52.9483 30.536 52.7927 30.5955C52.64 30.6519 52.4814 30.692 52.3168 30.7158C52.1551 30.7396 51.9935 30.7515 51.8319 30.7515C51.5475 30.7515 51.2796 30.6995 51.0282 30.5955C50.7768 30.4885 50.5568 30.3339 50.3682 30.1318C50.1796 29.9298 50.0299 29.6831 49.9192 29.3918C49.8114 29.0976 49.7576 28.7633 49.7576 28.3888C49.7576 28.053 49.8055 27.7424 49.9012 27.4571C50 27.1689 50.1437 26.9207 50.3323 26.7127C50.5208 26.5017 50.7543 26.3367 51.0327 26.2178C51.311 26.099 51.6313 26.0395 51.9935 26.0395C52.3377 26.0395 52.6385 26.0945 52.896 26.2045C53.1564 26.3144 53.3898 26.4719 53.5964 26.677L53.3045 27.0782Z" fill="white"/>
<path d="M58.2875 26.9266H56.6443V30.6846H55.5353V26.9266H53.8965V26.1109H58.2875V26.9266Z" fill="white"/>
<path d="M61.7766 27.8717C61.7766 27.7291 61.7556 27.5953 61.7137 27.4705C61.6748 27.3427 61.6149 27.2313 61.5341 27.1362C61.4533 27.0411 61.35 26.9668 61.2243 26.9133C61.1016 26.8568 60.9579 26.8286 60.7933 26.8286C60.473 26.8286 60.2201 26.9192 60.0345 27.1005C59.8519 27.2818 59.7352 27.5389 59.6843 27.8717H61.7766ZM59.6618 28.5359C59.6798 28.7707 59.7217 28.9743 59.7876 29.1467C59.8534 29.3161 59.9402 29.4572 60.048 29.5701C60.1557 29.6801 60.2829 29.7633 60.4296 29.8198C60.5793 29.8733 60.7439 29.9 60.9235 29.9C61.1031 29.9 61.2572 29.8792 61.3859 29.8376C61.5176 29.796 61.6314 29.7499 61.7272 29.6994C61.8259 29.6489 61.9113 29.6028 61.9831 29.5612C62.0579 29.5196 62.1298 29.4988 62.1986 29.4988C62.2914 29.4988 62.3602 29.533 62.4051 29.6014L62.7239 30.0026C62.6012 30.1452 62.4635 30.2656 62.3108 30.3636C62.1582 30.4587 61.9981 30.536 61.8304 30.5955C61.6658 30.6519 61.4967 30.692 61.3231 30.7158C61.1525 30.7396 60.9863 30.7515 60.8247 30.7515C60.5044 30.7515 60.2066 30.6995 59.9312 30.5955C59.6559 30.4885 59.4164 30.3324 59.2129 30.1274C59.0093 29.9193 58.8492 29.6638 58.7325 29.3606C58.6157 29.0545 58.5574 28.7009 58.5574 28.2997C58.5574 27.9876 58.6082 27.6949 58.71 27.4215C58.8118 27.1451 58.9569 26.9058 59.1455 26.7037C59.3371 26.4987 59.5691 26.3367 59.8414 26.2178C60.1168 26.099 60.4266 26.0395 60.7708 26.0395C61.0612 26.0395 61.3291 26.0856 61.5745 26.1777C61.82 26.2698 62.031 26.4051 62.2076 26.5834C62.3842 26.7587 62.5219 26.9757 62.6206 27.2342C62.7224 27.4898 62.7733 27.7825 62.7733 28.1124C62.7733 28.2789 62.7553 28.3918 62.7194 28.4512C62.6835 28.5077 62.6147 28.5359 62.5129 28.5359H59.6618Z" fill="white"/>
<path d="M68.9439 26.1019V30.6846H67.9427V28.1347C67.9427 28.0307 67.9472 27.9133 67.9562 27.7825C67.9681 27.6518 67.9861 27.5299 68.0101 27.417L66.6541 29.8867C66.5883 30.0144 66.4835 30.0783 66.3398 30.0783H66.2231C66.0794 30.0783 65.9747 30.0144 65.9088 29.8867L64.5349 27.4036C64.5559 27.5166 64.5723 27.6399 64.5843 27.7736C64.5993 27.9074 64.6068 28.0277 64.6068 28.1347V30.6846H63.6055V26.1019H64.5215C64.5993 26.1019 64.6756 26.1183 64.7504 26.151C64.8283 26.1837 64.8926 26.249 64.9435 26.3471L66.03 28.2729C66.0779 28.3621 66.1228 28.4572 66.1647 28.5582C66.2066 28.6563 66.2456 28.7558 66.2815 28.8569C66.3174 28.7558 66.3548 28.6548 66.3937 28.5538C66.4356 28.4527 66.4805 28.3591 66.5284 28.2729L67.606 26.3471C67.6598 26.2461 67.7242 26.1807 67.799 26.151C67.8739 26.1183 67.9502 26.1019 68.028 26.1019H68.9439Z" fill="white"/>
<path d="M72.4756 28.7321C72.1553 28.7469 71.8859 28.7752 71.6674 28.8168C71.4489 28.8554 71.2738 28.9059 71.1421 28.9683C71.0104 29.0308 70.9161 29.1036 70.8593 29.1868C70.8024 29.27 70.774 29.3606 70.774 29.4587C70.774 29.6519 70.8308 29.7901 70.9446 29.8733C71.0613 29.9565 71.2125 29.9981 71.3981 29.9981C71.6255 29.9981 71.8216 29.958 71.9862 29.8777C72.1538 29.7945 72.317 29.6697 72.4756 29.5033V28.7321ZM69.9344 26.7483C70.4642 26.2669 71.1017 26.0262 71.847 26.0262C72.1164 26.0262 72.3574 26.0707 72.5699 26.1599C72.7824 26.2461 72.962 26.3679 73.1087 26.5254C73.2553 26.68 73.3661 26.8657 73.4409 27.0827C73.5187 27.2996 73.5577 27.5374 73.5577 27.7959V30.6846H73.0548C72.95 30.6846 72.8692 30.6698 72.8123 30.64C72.7555 30.6073 72.7106 30.5434 72.6777 30.4483L72.5789 30.1185C72.4621 30.2225 72.3484 30.3146 72.2377 30.3949C72.1269 30.4721 72.0117 30.5375 71.8919 30.591C71.7722 30.6445 71.6435 30.6846 71.5058 30.7114C71.3711 30.7411 71.2215 30.7559 71.0568 30.7559C70.8623 30.7559 70.6827 30.7307 70.518 30.6802C70.3534 30.6267 70.2112 30.5479 70.0915 30.4439C69.9718 30.3399 69.879 30.2106 69.8131 30.0561C69.7473 29.9015 69.7144 29.7217 69.7144 29.5167C69.7144 29.4007 69.7338 29.2863 69.7727 29.1734C69.8116 29.0575 69.8745 28.9475 69.9613 28.8435C70.0511 28.7395 70.1663 28.6414 70.307 28.5493C70.4477 28.4572 70.6198 28.3769 70.8234 28.3086C71.0299 28.2402 71.2693 28.1852 71.5417 28.1436C71.8141 28.0991 72.1254 28.0723 72.4756 28.0634V27.7959C72.4756 27.4898 72.4098 27.264 72.2781 27.1183C72.1464 26.9697 71.9563 26.8954 71.7079 26.8954C71.5283 26.8954 71.3786 26.9162 71.2589 26.9578C71.1421 26.9995 71.0389 27.047 70.9491 27.1005C70.8593 27.151 70.777 27.1971 70.7021 27.2387C70.6303 27.2803 70.5495 27.3011 70.4597 27.3011C70.3819 27.3011 70.316 27.2818 70.2621 27.2432C70.2082 27.2015 70.1648 27.154 70.1319 27.1005L69.9344 26.7483Z" fill="white"/>
<path d="M8.96481 7.66229C7.8886 7.66229 7.01617 8.52851 7.01617 9.59706V11.5035C7.01617 11.6947 7.17228 11.8497 7.36485 11.8497H8.39199C8.58456 11.8497 8.74067 11.6947 8.74067 11.5035V9.59706C8.74067 9.47415 8.84102 9.37451 8.96481 9.37451H10.885C11.0775 9.37451 11.2337 9.21951 11.2337 9.02831V8.00849C11.2337 7.81729 11.0775 7.66229 10.885 7.66229H8.96481Z" fill="white"/>
<path d="M20.9505 7.66229C20.7579 7.66229 20.6018 7.81729 20.6018 8.00849V9.02831C20.6018 9.21951 20.7579 9.37451 20.9505 9.37451H22.8706C22.9944 9.37451 23.0948 9.47415 23.0948 9.59706V11.5035C23.0948 11.6947 23.2509 11.8497 23.4434 11.8497H24.4706C24.6631 11.8497 24.8193 11.6947 24.8193 11.5035V9.59706C24.8193 8.52851 23.9468 7.66229 22.8706 7.66229H20.9505Z" fill="white"/>
<path d="M7.01617 21.4974C7.01617 21.3062 7.17228 21.1512 7.36485 21.1512H8.39198C8.58456 21.1512 8.74067 21.3062 8.74067 21.4974V23.4038C8.74067 23.5267 8.84102 23.6264 8.96481 23.6264H10.885C11.0775 23.6264 11.2337 23.7814 11.2337 23.9726V24.9924C11.2337 25.1836 11.0775 25.3386 10.885 25.3386H8.96481C7.8886 25.3386 7.01617 24.4724 7.01617 23.4038V21.4974Z" fill="white"/>
<path d="M23.4434 21.1512C23.2509 21.1512 23.0948 21.3062 23.0948 21.4974V23.4038C23.0948 23.5267 22.9944 23.6264 22.8706 23.6264H20.9505C20.7579 23.6264 20.6018 23.7814 20.6018 23.9726V24.9924C20.6018 25.1836 20.7579 25.3386 20.9505 25.3386H22.8706C23.9468 25.3386 24.8193 24.4724 24.8193 23.4038V21.4974C24.8193 21.3062 24.6631 21.1512 24.4706 21.1512H23.4434Z" fill="white"/>
<path fill-rule="evenodd" clip-rule="evenodd" d="M20.0703 9.84835C21.6216 11.1678 22.1724 13.3936 21.3324 16.5281C21.5552 16.6776 21.7827 16.8869 21.8943 17.0989C22.1838 17.649 22.1211 18.2768 22.0038 18.7156C21.8779 19.1863 21.6262 19.6844 21.2554 20.0626C21.0764 20.2453 20.8364 20.4286 20.5481 20.5476C20.3068 21.4126 19.9306 22.2523 19.36 22.9321C18.609 23.8269 17.5462 24.4088 16.1728 24.4088C14.7887 24.4088 13.635 23.9359 12.7617 23.0823C12.0681 22.4043 11.5931 21.528 11.29 20.5591C10.9894 20.4407 10.7397 20.2514 10.5549 20.0629C10.184 19.6846 9.93227 19.1866 9.80639 18.7158C9.68906 18.2769 9.6263 17.6491 9.91588 17.099C10.0345 16.8735 10.2843 16.6512 10.5201 16.5004C10.5201 16.434 10.4869 16.3603 10.4514 16.2816C10.4384 16.2527 10.425 16.2231 10.4129 16.1929C10.0626 15.3196 9.86212 13.5202 10.1296 12.5376C10.4947 11.1965 11.3985 10.3941 12.0951 10.1345C12.722 9.89438 12.9874 9.85266 13.5121 9.77479C13.586 9.718 13.6751 9.65112 13.7752 9.57927C14.0505 9.38169 14.4501 9.11604 14.8597 8.92992C15.59 8.59332 16.5106 8.51102 17.4001 8.64739C18.3053 8.78616 19.2653 9.16371 20.0703 9.84835ZM19.311 16.7139L19.3151 16.7122C19.2969 16.8423 19.2753 16.9769 19.2498 17.1162C19.2396 17.1723 19.231 17.2124 19.2247 17.2418C19.2208 17.2603 19.2177 17.2745 19.2158 17.2857C19.1864 17.4534 19.4725 17.4995 19.6439 17.4995C19.8365 17.4995 19.8939 17.7679 19.8128 18.0798C19.7627 18.2722 19.6209 18.4395 19.4843 18.6007C19.4339 18.6601 19.3842 18.7188 19.3401 18.7775C19.3159 18.8097 19.2869 18.839 19.2498 18.8619C19.1958 18.9071 19.1456 18.9469 19.0995 18.9833C19.0766 19.0027 19.0611 19.0159 19.0476 19.0308C19.0188 19.0624 18.9989 19.102 18.9367 19.2254L18.9373 19.226C18.8945 19.3148 18.8634 19.4073 18.8452 19.498C18.6612 20.4179 18.2412 21.1436 17.8138 21.6528C17.4152 22.1277 16.9035 22.5921 16.1728 22.5921C15.2856 22.5921 14.6487 22.1224 14.1738 21.6582C13.6785 21.1741 13.2952 20.4329 13.0721 19.4422C13.0246 19.2313 12.9023 19.1346 12.7114 18.9836C12.6652 18.9471 12.6151 18.9074 12.561 18.8621C12.5239 18.8393 12.4949 18.8099 12.4707 18.7777C12.4266 18.7189 12.3769 18.6603 12.3265 18.6009C12.1898 18.4397 12.048 18.2724 11.9979 18.0799C11.9168 17.768 11.9742 17.4996 12.1668 17.4996C12.3383 17.4996 12.6244 17.4535 12.595 17.2858C12.594 17.2796 12.5926 17.2725 12.5908 17.2642C12.5894 17.2575 12.5879 17.2501 12.5861 17.2419C12.5798 17.2125 12.5712 17.1723 12.561 17.1162C12.1723 14.9876 12.664 13.9527 12.9698 13.6644C13.1157 13.5196 13.2862 13.3655 13.4449 13.2351C14.2304 13.7956 15.7647 14.684 17.9513 14.593C18.952 14.5969 19.1582 14.8835 19.2427 15.0578C19.3828 15.3469 19.4284 15.8609 19.311 16.7139Z" fill="white"/>
<path fill-rule="evenodd" clip-rule="evenodd" d="M27.606 6.46103C28.8583 7.46351 30.1107 9.552 30.2359 11.181C30.2359 11.181 30.5281 13.6037 30.5699 16.4733C30.5673 18.2455 30.4698 20.0163 30.2776 21.7781C29.9864 23.6227 29.0373 25.2995 27.606 26.4981C27.606 26.4981 25.644 27.9182 23.2229 29.3802C21.7224 30.2694 20.1757 31.0781 18.5893 31.8028C17.7428 32.1527 16.8332 32.3233 15.9176 32.3041C15.0032 32.3233 14.0944 32.157 13.246 31.8154C11.6593 31.0912 10.1126 30.2825 8.61237 29.3927C6.19121 27.9725 4.22922 26.5106 4.22922 26.5106C2.9769 25.5081 1.72457 23.4196 1.55759 21.7906C1.36739 20.0287 1.26985 18.258 1.26538 16.4858C1.26794 14.7136 1.36548 12.9428 1.55759 11.181C1.84886 9.33635 2.79793 7.65963 4.22922 6.46103C4.22922 6.46103 6.19121 5.08262 8.61237 3.62067C10.1129 2.73142 11.6596 1.92273 13.246 1.19802C14.0924 0.848191 15.002 0.677529 15.9176 0.696777C16.8329 0.681551 17.7417 0.852062 18.5893 1.19802C20.1759 1.92221 21.7227 2.73092 23.2229 3.62067C24.7345 4.4869 26.1977 5.4351 27.606 6.46103ZM26.2034 7.73846C27.3054 8.61335 28.4075 10.436 28.5177 11.8577C28.5177 11.8577 28.7748 13.972 28.8116 16.4764C28.8093 18.0231 28.7235 19.5685 28.5544 21.106C28.2981 22.716 27.4629 24.1793 26.2034 25.2253C26.2034 25.2253 24.4769 26.4648 22.3462 27.7406C21.0258 28.5167 19.6647 29.2225 18.2686 29.8549C17.5238 30.1603 16.7233 30.3092 15.9176 30.2924C15.1129 30.3092 14.3132 30.1641 13.5666 29.8659C12.1703 29.2339 10.8092 28.5281 9.48898 27.7516C7.35836 26.5121 5.63181 25.2363 5.63181 25.2363C4.52976 24.3614 3.42772 22.5387 3.28078 21.117C3.1134 19.5793 3.02756 18.034 3.02363 16.4874C3.02588 14.9407 3.11172 13.3953 3.28078 11.8577C3.5371 10.2478 4.37227 8.78451 5.63181 7.73846C5.63181 7.73846 7.35836 6.53548 9.48898 5.2596C10.8094 4.48353 12.1705 3.77776 13.5666 3.14528C14.3114 2.83998 15.1119 2.69104 15.9176 2.70784C16.723 2.69455 17.5228 2.84336 18.2686 3.14528C19.6649 3.77731 21.026 4.48309 22.3462 5.2596C23.6765 6.01558 24.9641 6.8431 26.2034 7.73846Z" fill="white"/>
</svg>
