<svg width="702" height="190" viewBox="0 0 702 190" fill="none" xmlns="http://www.w3.org/2000/svg">
<g clip-path="url(#clip0_391_935)">
<path d="M258.309 140.316V81.8867H216.383V186.963H229.259L258.309 144.264V186.963H329.803V81.8867H298.068L258.309 140.316Z" fill="white"/>
<path d="M131.352 140.316V81.8867H71.4939L0 186.963H102.302L131.352 144.264V186.963H202.83V81.8867H171.111L131.352 140.316Z" fill="white"/>
<path d="M642.093 81.8867L602.334 140.316V81.8867H570.599L499.105 186.963H573.284L602.334 144.264V186.963H701.999V81.8867H642.093Z" fill="white"/>
<path d="M343.336 81.8867V186.963H383.299V114.131H408.031V81.8867H343.336Z" fill="white"/>
<path d="M463.306 79.4258C452.619 79.4258 442.173 82.6519 433.287 88.6963C424.402 94.7407 417.476 103.332 413.386 113.383C409.297 123.435 408.227 134.495 410.312 145.165C412.397 155.836 417.543 165.637 425.099 173.33C432.656 181.023 442.284 186.262 452.765 188.385C463.246 190.507 474.11 189.418 483.983 185.255C493.857 181.091 502.295 174.041 508.233 164.995C514.17 155.949 517.339 145.313 517.339 134.434C517.341 127.209 515.945 120.055 513.23 113.381C510.515 106.706 506.535 100.641 501.517 95.5326C496.5 90.4242 490.542 86.3724 483.986 83.6087C477.429 80.8451 470.402 79.4237 463.306 79.4258ZM461.657 161.834V140.413L426.625 160.955L465.033 107.05V128.471L499.987 107.961L461.657 161.834Z" fill="white"/>
</g>
<path d="M420.99 54.8594L427.65 16.9394H429.45L444.69 43.3394L459.81 16.9394H461.61L468.57 54.8594H462.15L457.89 30.7994L444.69 53.9594L431.01 30.7994L427.41 54.8594H420.99ZM475.759 54.8594V16.9394H502.999V22.5794H481.579V32.9594H500.359V38.6594H481.579V49.2194H503.239V54.8594H475.759ZM509.626 54.8594V16.9394H515.686V32.9594H535.726V16.9394H541.786V54.8594H535.726V38.7194H515.686V54.8594H509.626ZM558.075 41.2994C552.075 39.2194 549.075 35.1794 549.075 29.1794C549.075 25.0994 550.335 22.0394 552.855 19.9994C555.375 17.9594 559.055 16.9394 563.895 16.9394H580.215V54.8594H574.155V41.7794C571.795 42.2994 569.255 42.5594 566.535 42.5594C565.615 42.5594 564.935 42.5394 564.495 42.4994L557.115 54.8594H549.735L558.075 41.2994ZM566.955 37.3394C569.795 37.3394 572.195 37.1194 574.155 36.6794V22.3994H563.955C561.275 22.3994 559.195 23.0394 557.715 24.3194C556.275 25.5594 555.555 27.3594 555.555 29.7194C555.595 34.7994 559.395 37.3394 566.955 37.3394ZM615.22 11.5394C613.18 13.2194 610.66 14.0594 607.66 14.0594C604.66 14.0594 602.14 13.2194 600.1 11.5394C598.06 9.85937 596.96 7.57937 596.8 4.69937H602.32C602.44 6.09937 602.94 7.21937 603.82 8.05937C604.74 8.89937 606.02 9.31937 607.66 9.31937C609.3 9.31937 610.56 8.89937 611.44 8.05937C612.36 7.21937 612.88 6.09937 613 4.69937H618.52C618.36 7.57937 617.26 9.85937 615.22 11.5394ZM589.9 54.8594V16.9394H595.96V43.0994L620.92 16.9394H623.26V54.8594H617.2V28.6394L592.24 54.8594H589.9ZM650.02 55.9394C644.3 55.9394 639.62 54.0794 635.98 50.3594C632.34 46.5994 630.52 41.8794 630.52 36.1994C630.52 30.1994 632.4 25.3794 636.16 21.7394C639.92 18.0994 644.88 16.2794 651.04 16.2794C654.72 16.2794 658.22 16.9794 661.54 18.3794V23.8394C658.58 22.6394 655.22 22.0394 651.46 22.0394C647.06 22.0394 643.56 23.2994 640.96 25.8194C638.36 28.2994 637.06 31.7594 637.06 36.1994C637.18 40.5994 638.54 44.0394 641.14 46.5194C643.74 48.9594 647 50.1794 650.92 50.1794C654.68 50.1794 658.32 49.3394 661.84 47.6594V53.4194C658.36 55.0994 654.42 55.9394 650.02 55.9394ZM675.321 41.2994C669.321 39.2194 666.321 35.1794 666.321 29.1794C666.321 25.0994 667.581 22.0394 670.101 19.9994C672.621 17.9594 676.301 16.9394 681.141 16.9394H697.461V54.8594H691.401V41.7794C689.041 42.2994 686.501 42.5594 683.781 42.5594C682.861 42.5594 682.181 42.5394 681.741 42.4994L674.361 54.8594H666.981L675.321 41.2994ZM684.201 37.3394C687.041 37.3394 689.441 37.1194 691.401 36.6794V22.3994H681.201C678.521 22.3994 676.441 23.0394 674.961 24.3194C673.521 25.5594 672.801 27.3594 672.801 29.7194C672.841 34.7994 676.641 37.3394 684.201 37.3394Z" fill="white"/>
<defs>
<clipPath id="clip0_391_935">
<rect width="702" height="110" fill="white" transform="translate(0 79.4258)"/>
</clipPath>
</defs>
</svg>
