<svg width="83" height="36" viewBox="0 0 83 36" fill="none" xmlns="http://www.w3.org/2000/svg">
<path d="M32.3175 19.0371L29.6456 11.7754H31.3253L33.243 17.3606L35.1501 11.7754H36.8298L34.1632 19.0371H32.3175Z" fill="white"/>
<path d="M37.3015 12.3852C37.3015 12.2217 37.3476 12.0618 37.4341 11.9258C37.5206 11.7898 37.6436 11.6838 37.7874 11.6211C37.9313 11.5585 38.0896 11.5421 38.2424 11.5739C38.3951 11.6058 38.5355 11.6845 38.6456 11.8001C38.7558 11.9157 38.8309 12.063 38.8613 12.2234C38.8918 12.3838 38.8763 12.55 38.8168 12.7012C38.7573 12.8523 38.6565 12.9816 38.5271 13.0726C38.3977 13.1635 38.2455 13.2122 38.0898 13.2123C37.9863 13.2124 37.8838 13.1911 37.7881 13.1496C37.6925 13.1081 37.6056 13.0472 37.5324 12.9704C37.4592 12.8935 37.4011 12.8023 37.3615 12.7019C37.3218 12.6015 37.3015 12.4939 37.3015 12.3852ZM37.4364 19.0372V13.7783H38.753V19.0372H37.4364Z" fill="white"/>
<path d="M39.6262 18.3512L40.1962 17.3824C40.5593 17.7414 41.3052 18.0989 41.9275 18.0989C42.4975 18.0989 42.7673 17.86 42.7673 17.5329C42.7673 16.662 39.7922 17.3736 39.7922 15.3039C39.7922 14.4218 40.5282 13.6488 41.8449 13.6488C42.577 13.6371 43.2908 13.89 43.8664 14.3653L43.3358 15.3126C43.0326 14.9751 42.4649 14.7028 41.8532 14.7028C41.3764 14.7028 41.0656 14.9313 41.0656 15.225C41.0656 16.0092 44.0302 15.3556 44.0302 17.4787C44.0302 18.434 43.2525 19.1664 41.8638 19.1664C40.9944 19.1656 40.1545 18.8631 39.6262 18.3512Z" fill="white"/>
<path d="M44.8716 12.3852C44.8716 12.2216 44.9178 12.0617 45.0044 11.9257C45.0909 11.7897 45.2139 11.6837 45.3578 11.6211C45.5017 11.5585 45.6601 11.5421 45.8128 11.574C45.9656 11.6059 46.1059 11.6847 46.2161 11.8004C46.3262 11.916 46.4012 12.0634 46.4316 12.2239C46.462 12.3843 46.4464 12.5506 46.3868 12.7017C46.3272 12.8529 46.2262 12.9821 46.0967 13.0729C45.9672 13.1638 45.815 13.2123 45.6592 13.2123C45.4503 13.2123 45.25 13.1252 45.1023 12.9701C44.9546 12.815 44.8716 12.6046 44.8716 12.3852ZM45.0066 19.0372V13.7783H46.3217V19.0372H45.0066Z" fill="white"/>
<path d="M47.3071 16.4023C47.3071 14.9105 48.3024 13.6479 49.951 13.6479C51.5996 13.6479 52.604 14.9105 52.604 16.4023C52.604 17.8942 51.608 19.1655 49.951 19.1655C48.294 19.1655 47.3071 17.9053 47.3071 16.4023ZM51.2358 16.4023C51.2358 15.5856 50.7689 14.8779 49.9472 14.8779C49.1256 14.8779 48.6715 15.5832 48.6715 16.4023C48.6715 17.2215 49.1263 17.9372 49.9465 17.9372C50.7666 17.9372 51.235 17.2303 51.235 16.4023H51.2358Z" fill="white"/>
<path d="M56.9595 19.0371V15.8584C56.9595 15.1292 56.5965 14.8784 56.0371 14.8784C55.8145 14.8814 55.5958 14.9391 55.3983 15.047C55.2009 15.1548 55.0302 15.3097 54.9001 15.4993V19.0379H53.5797V13.7782H54.8963V14.4644C55.1148 14.2036 55.3846 13.9955 55.687 13.8546C55.9893 13.7136 56.3172 13.643 56.648 13.6477C57.7471 13.6477 58.2754 14.3013 58.2754 15.3242V19.0371H56.9595Z" fill="white"/>
<path d="M59.6133 19.0371V11.7754H61.0854V17.6766H64.0089V19.0379L59.6133 19.0371Z" fill="white"/>
<path d="M67.9377 19.0373V18.4928C67.5959 18.9171 67.0047 19.1679 66.352 19.1679C65.5539 19.1679 64.6086 18.6019 64.6086 17.4261C64.6086 16.1962 65.5523 15.7273 66.352 15.7273C67.0153 15.7273 67.6065 15.9558 67.9377 16.3697V15.6628C67.9377 15.1294 67.5027 14.7808 66.8387 14.7808C66.2933 14.7808 65.7692 15.0034 65.3772 15.4017L64.88 14.4751C65.4885 13.928 66.2667 13.6338 67.0676 13.6479C68.2046 13.6479 69.2551 14.1256 69.2551 15.6381V19.0349L67.9377 19.0373ZM67.9377 17.7748V17.1212C67.7202 16.8163 67.3056 16.6643 66.8803 16.6643C66.3619 16.6643 65.9366 16.9477 65.9366 17.4603C65.9366 17.9499 66.3619 18.2333 66.8803 18.2333C67.3056 18.2317 67.7202 18.0797 67.9377 17.7748Z" fill="white"/>
<path d="M70.5612 19.0371V11.7754H71.8778V14.4534C72.0579 14.2021 72.2913 13.9985 72.5595 13.8586C72.8277 13.7188 73.1232 13.6466 73.4226 13.6477C74.6976 13.6477 75.6413 14.693 75.6413 16.4133C75.6413 18.1646 74.6877 19.1677 73.4226 19.1677C73.1235 19.1672 72.8285 19.0943 72.5606 18.9545C72.2926 18.8148 72.059 18.6121 71.8778 18.3621V19.0371H70.5612ZM73.0035 17.9378C73.7706 17.9378 74.2784 17.328 74.2784 16.4133C74.2784 15.4986 73.7728 14.8785 73.0035 14.8785C72.5782 14.8785 72.0939 15.1396 71.8733 15.4883V17.3503C72.0939 17.687 72.582 17.9378 73.0035 17.9378Z" fill="white"/>
<path d="M76.2008 18.3512L76.7708 17.3824C77.1339 17.7414 77.8798 18.0989 78.5021 18.0989C79.0721 18.0989 79.3419 17.86 79.3419 17.5329C79.3419 16.662 76.3668 17.3736 76.3668 15.3039C76.3668 14.4218 77.1028 13.6488 78.4195 13.6488C79.1516 13.6371 79.8654 13.89 80.441 14.3653L79.9104 15.3126C79.6072 14.9751 79.0395 14.7028 78.4278 14.7028C77.951 14.7028 77.6402 14.9313 77.6402 15.225C77.6402 16.0092 80.6055 15.3556 80.6055 17.4787C80.6055 18.434 79.8278 19.1664 78.4392 19.1664C77.569 19.1656 76.7291 18.8631 76.2008 18.3512Z" fill="white"/>
<path d="M33.7754 25.1363V23.2759L33.0401 25.1363H32.8605L32.129 23.2719V25.1363H31.7098V22.6279H32.2988L32.9476 24.2814L33.6003 22.6279H34.1938V25.1363H33.7754Z" fill="white"/>
<path d="M37.3774 25.1359L37.2046 24.6582H36.1093L35.9342 25.1359H35.4574L36.392 22.6274H36.9158L37.8572 25.1359H37.3774ZM36.6527 23.0661L36.2222 24.2602H37.0825L36.6527 23.0661Z" fill="white"/>
<path d="M38.8934 23.8855C38.8934 23.1133 39.4422 22.5863 40.1487 22.5863C40.3424 22.5813 40.5338 22.6312 40.7029 22.7306C40.872 22.8301 41.0126 22.9754 41.1098 23.1515L40.7513 23.3433C40.6893 23.2331 40.6012 23.1415 40.4957 23.0775C40.3901 23.0135 40.2706 22.9792 40.1487 22.9779C39.6757 22.9779 39.324 23.3585 39.324 23.8855C39.324 24.4125 39.6757 24.793 40.1487 24.793C40.2706 24.7921 40.3903 24.758 40.4959 24.6939C40.6016 24.6299 40.6896 24.5381 40.7513 24.4276L41.1098 24.6194C41.012 24.795 40.8714 24.9399 40.7024 25.0393C40.5334 25.1386 40.3423 25.1888 40.1487 25.1846C39.4407 25.1846 38.8934 24.6584 38.8934 23.8855Z" fill="white"/>
<path d="M44.1123 25.1359V24.0436H42.8677V25.1359H42.4485V22.6274H42.8677V23.6552H44.1116V22.6274H44.5307V25.1359H44.1123Z" fill="white"/>
<path d="M46.0446 25.1359V22.6274H46.4637V25.1359H46.0446Z" fill="white"/>
<path d="M49.6442 25.1359L48.3966 23.3431V25.1359H47.9774V22.6274H48.408L49.6306 24.3708V22.6274H50.0505V25.1359H49.6442Z" fill="white"/>
<path d="M51.5628 25.1359V22.6274H53.2016V23.0151H51.982V23.6663H53.1758V24.054H51.982V24.7506H53.2008V25.1359H51.5628Z" fill="white"/>
<path d="M54.4811 24.7856L54.7138 24.4465C54.8107 24.5559 54.928 24.6431 55.0584 24.7027C55.1889 24.7623 55.3296 24.793 55.4718 24.7928C55.816 24.7928 55.9524 24.616 55.9524 24.4505C55.9524 23.9235 54.5577 24.2506 54.5577 23.3248C54.5577 22.9109 54.9056 22.5908 55.4286 22.5908C55.5927 22.5841 55.7565 22.6116 55.9104 22.6717C56.0643 22.7318 56.2053 22.8234 56.3253 22.9411L56.085 23.2691C55.8995 23.0813 55.6506 22.9785 55.393 22.9833C55.1459 22.9833 54.9882 23.1075 54.9882 23.2962C54.9882 23.7635 56.3792 23.4729 56.3792 24.4107C56.3792 24.8286 56.0995 25.186 55.4544 25.186C55.0117 25.1844 54.6926 25.0228 54.4811 24.7856Z" fill="white"/>
<path d="M59.587 23.8855C59.587 23.1133 60.1358 22.5863 60.8423 22.5863C61.036 22.5813 61.2274 22.6312 61.3965 22.7306C61.5656 22.8301 61.7062 22.9754 61.8034 23.1515L61.4449 23.3433C61.3829 23.2331 61.2948 23.1415 61.1893 23.0775C61.0837 23.0135 60.9642 22.9792 60.8423 22.9779C60.3693 22.9779 60.0176 23.3585 60.0176 23.8855C60.0176 24.4125 60.3693 24.793 60.8423 24.793C60.9642 24.7921 61.0839 24.758 61.1895 24.6939C61.2952 24.6299 61.3832 24.5381 61.4449 24.4276L61.8034 24.6194C61.7056 24.795 61.565 24.9399 61.396 25.0393C61.227 25.1386 61.0359 25.1888 60.8423 25.1846C60.1351 25.1846 59.587 24.6584 59.587 23.8855Z" fill="white"/>
<path d="M64.7998 25.1361L64.624 24.6585H63.5287L63.3528 25.1361H62.876L63.8152 22.6245H64.339L65.2721 25.1361H64.7998ZM64.0759 23.0663L63.6454 24.2604H64.5057L64.0759 23.0663Z" fill="white"/>
<path d="M68.2094 25.1359L66.9617 23.3431V25.1359H66.5425V22.6274H66.9731L68.1957 24.3708V22.6274H68.6149V25.1359H68.2094Z" fill="white"/>
<path d="M71.8986 24.7856L72.1313 24.4465C72.2281 24.5559 72.3454 24.6431 72.4758 24.7027C72.6063 24.7623 72.747 24.793 72.8893 24.7928C73.2334 24.7928 73.3698 24.616 73.3698 24.4505C73.3698 23.9235 71.9751 24.2506 71.9751 23.3248C71.9751 22.9109 72.323 22.5908 72.846 22.5908C73.0101 22.5841 73.1739 22.6116 73.3278 22.6717C73.4817 22.7318 73.6227 22.8234 73.7428 22.9411L73.5025 23.2691C73.3169 23.0813 73.068 22.9785 72.8104 22.9833C72.5633 22.9833 72.4057 23.1075 72.4057 23.2962C72.4057 23.7635 73.7966 23.4729 73.7966 24.4107C73.7966 24.8286 73.5169 25.186 72.8718 25.186C72.4292 25.1844 72.11 25.0228 71.8986 24.7856Z" fill="white"/>
<path d="M75.1868 25.1359V22.6274H76.8256V23.0151H75.606V23.6663H76.7998V24.054H75.606V24.7506H76.8248V25.1359H75.1868Z" fill="white"/>
<path d="M78.259 25.1359V22.6274H79.9016V23.0151H78.679V23.6663H79.8728V24.054H78.679V24.7506H79.9016V25.1359H78.259Z" fill="white"/>
<path d="M24.2455 18.0875C24.2455 21.0514 23.1244 23.8939 21.1288 25.9897C19.1333 28.0855 16.4267 29.2629 13.6046 29.2629C10.7824 29.2629 8.07589 28.0855 6.08033 25.9897C4.08478 23.8939 2.96368 21.0514 2.96368 18.0875C2.96405 18.086 2.96481 18.0846 2.96588 18.0834C2.96694 18.0823 2.96828 18.0815 2.96975 18.0811C4.29229 16.5281 5.90932 15.2825 7.71711 14.4243C9.52491 13.5661 11.4835 13.1142 13.4674 13.0977C12.2345 13.1377 11.0649 13.6803 10.2064 14.6103C9.34779 15.5404 8.86765 16.7849 8.86765 18.0803C8.86765 19.3758 9.34779 20.6203 10.2064 21.5504C11.0649 22.4804 12.2345 23.0229 13.4674 23.063H13.7418C15.7255 23.0458 17.6839 22.5938 19.4917 21.7359C21.2995 20.8781 22.9168 19.6332 24.2402 18.0811C24.2402 18.0811 24.244 18.0843 24.2455 18.0875Z" fill="white"/>
<path d="M24.2455 18.0733L24.2402 18.0813C22.9172 19.6338 21.3001 20.8792 19.4925 21.7376C17.6848 22.596 15.7264 23.0486 13.7426 23.0663C14.9754 23.0262 16.145 22.4837 17.0036 21.5537C17.8622 20.6236 18.3423 19.3791 18.3423 18.0836C18.3423 16.7882 17.8622 15.5437 17.0036 14.6136C16.145 13.6836 14.9754 13.1411 13.7426 13.101H13.4682C11.4849 13.1174 9.5268 13.5689 7.71933 14.4264C5.91186 15.2839 4.29489 16.5285 2.97207 18.0805L2.966 18.0725C2.98969 15.1253 4.1211 12.3072 6.11387 10.2319C8.10664 8.1566 10.7994 6.99219 13.6058 6.99219C16.4121 6.99219 19.1049 8.1566 21.0977 10.2319C23.0904 12.3072 24.2218 15.1253 24.2455 18.0725V18.0733Z" fill="white"/>
<path d="M12.6658 13.1947C13.0388 13.131 13.2957 13.1087 13.4041 13.1016C13.1561 13.1119 12.9092 13.143 12.6658 13.1947Z" fill="url(#paint0_radial_69_522)"/>
<path d="M12.9692 13.1386C13.0102 13.1338 13.1299 13.1179 13.2406 13.1091C13.3513 13.1004 13.4627 13.0972 13.4627 13.0972C11.8713 13.1138 10.2937 13.4081 8.79423 13.9681C5.04369 15.3715 2.96376 18.0861 2.96376 18.0861C2.92131 19.8327 3.54059 21.7297 3.54059 21.7297C3.98409 23.0444 4.64993 24.2641 5.50606 25.3304C5.50606 25.3304 7.93997 18.8344 9.27555 16.0251C9.51129 15.5339 10.051 14.3892 11.4533 13.6369C11.928 13.3815 12.4406 13.213 12.9692 13.1386Z" fill="white"/>
<defs>
<radialGradient id="paint0_radial_69_522" cx="0" cy="0" r="1" gradientUnits="userSpaceOnUse" gradientTransform="translate(5.66502 16.0343) scale(7.00081 7.35251)">
<stop stop-color="#70025A"/>
<stop offset="1" stop-color="#070606" stop-opacity="0"/>
</radialGradient>
</defs>
</svg>
